<svg width="191" height="221" viewBox="0 0 191 221" fill="none" xmlns="http://www.w3.org/2000/svg">
<g clip-path="url(#clip0_615_13)">
<path d="M89.1092 3.75278C93.1314 1.43055 98.087 1.43055 102.109 3.75278L184.718 51.4472C188.741 53.7694 191.218 58.0611 191.218 62.7056V158.094C191.218 162.739 188.741 167.031 184.718 169.353L102.109 217.047C98.087 219.369 93.1314 219.369 89.1092 217.047L6.50001 169.353C2.47779 167.031 0 162.739 0 158.094V62.7056C0 58.0611 2.47778 53.7695 6.5 51.4472L89.1092 3.75278Z" fill="#0D0D0D"/>
<path d="M89.3592 4.18579C93.2267 1.95288 97.9917 1.95288 101.859 4.18579L184.468 51.8802C188.336 54.1131 190.718 58.2397 190.718 62.7056V158.094C190.718 162.56 188.336 166.687 184.468 168.92L101.859 216.614C97.9917 218.847 93.2267 218.847 89.3592 216.614L6.75001 168.92C2.88249 166.687 0.5 162.56 0.5 158.094V62.7056C0.5 58.2397 2.88249 54.1131 6.75 51.8802L89.3592 4.18579Z" stroke="white" stroke-opacity="0.15"/>
<path fill-rule="evenodd" clip-rule="evenodd" d="M122.639 32.0368L95.6639 16.6001L68.7625 31.9944L68.4536 41.3224L48.8815 52.5225L40.8855 47.9469L13.8102 63.4407V94.1544L21.8061 99.1978V121.559L13.8102 126.134V157.187L40.5794 172.506L49.0341 168.193L68.6883 179.44V188.591L95.6639 204.028L122.639 188.591V179.44L142.646 167.991L150.642 172.567L177.518 157.187V126.218L169.522 121.289V98.8404L177.518 94.2647V63.4407L150.503 47.9818L142.248 52.4093L122.639 41.1881V32.0368ZM118.746 43.4485L142.187 56.8627L150.442 52.4351L173.624 65.7011V92.0043L165.628 96.58V123.465L173.624 128.395V154.927L150.642 168.078L142.646 163.503L118.746 177.179V186.331L95.6639 199.539L72.5815 186.331V177.179L49.1404 163.765L40.6856 168.078L17.7033 154.927V128.395L25.6992 123.819V97.0479L17.7033 92.0044V65.7011L40.8855 52.4351L48.8815 57.0108L72.2727 43.6252L72.5815 34.2972L95.6639 21.0884L118.746 34.2972V43.4485Z" fill="white"/>
<path fill-rule="evenodd" clip-rule="evenodd" d="M95.6634 43.4307L37.9186 76.8721V143.755L95.6634 177.196L153.408 143.755V76.8721L95.6634 43.4307ZM41.8055 79.1231L95.6634 47.9326L149.521 79.1231V141.504L95.6634 172.694L41.8055 141.504V79.1231Z" fill="white"/>
<path fill-rule="evenodd" clip-rule="evenodd" d="M76.9109 84.6494L64.9504 91.5226L44.9176 139.48L58.3985 147.227L69.4392 140.883L69.4769 140.791L76.638 144.906L80.8617 160.135L95.6652 168.642L108.301 161.381L88.6748 91.4094L76.9109 84.6494ZM65.9711 138.776L62.0091 141.053L63.5162 137.365L65.9711 138.776ZM57.5182 142.622L49.4129 137.964L67.2312 95.3075L75.0858 99.8211L92.773 162.88L83.9096 157.787L79.686 142.558L61.7555 132.254L57.5182 142.622ZM96.7642 163.911L93.6951 152.969L93.7241 152.961L89.5005 137.731L89.4268 137.751L78.6964 99.4947L86.0545 95.2663L104.122 159.682L96.7642 163.911ZM83.5864 92.585L76.6071 96.5957L69.9316 92.7597L76.9109 88.749L83.5864 92.585ZM70.8758 109.408L68.8166 114.807C68.4807 115.688 68.1973 116.438 67.9663 117.057L67.9631 117.066L64.7487 124.931L76.7025 131.8L73.664 120.844L73.6025 120.622L73.5965 120.602C73.4591 120.149 73.2015 119.158 72.8277 117.655L72.8277 117.654L72.826 117.648L72.8246 117.641C72.6409 116.823 72.4386 115.952 72.2177 115.027L70.8758 109.408ZM70.8405 124.001L70.9496 124.394L70.5529 124.166L70.8405 124.001Z" fill="white"/>
<path d="M66.694 124.217L73.6934 128.201L71.7691 121.328L71.7119 121.124C71.5555 120.612 71.2805 119.561 70.901 118.049L70.8943 118.022L70.8883 117.996C70.7023 117.176 70.4972 116.3 70.2728 115.369C69.93 116.259 69.6417 117.015 69.4075 117.637L69.3943 117.672L66.694 124.217Z" fill="white"/>
</g>
<defs>
<clipPath id="clip0_615_13">
<rect width="191" height="221" fill="white"/>
</clipPath>
</defs>
</svg>
