<svg width="291" height="321" viewBox="0 0 291 321" fill="none" xmlns="http://www.w3.org/2000/svg">
<g clip-path="url(#clip0_609_2)">
<g filter="url(#filter0_d_609_2)">
<path d="M139.109 53.7528C143.131 51.4306 148.087 51.4306 152.109 53.7528L234.718 101.447C238.741 103.769 241.218 108.061 241.218 112.706V208.094C241.218 212.739 238.741 217.031 234.718 219.353L152.109 267.047C148.087 269.369 143.131 269.369 139.109 267.047L56.5 219.353C52.4778 217.031 50 212.739 50 208.094V112.706C50 108.061 52.4778 103.769 56.5 101.447L139.109 53.7528Z" fill="#0D1117"/>
<path d="M151.859 54.1858L234.468 101.88C238.336 104.113 240.718 108.24 240.718 112.706V208.094C240.718 212.56 238.336 216.687 234.468 218.92L151.859 266.614C147.992 268.847 143.227 268.847 139.359 266.614L56.75 218.92C52.8825 216.687 50.5 212.56 50.5 208.094V112.706C50.5 108.24 52.8825 104.113 56.75 101.88L139.359 54.1858C143.227 51.9529 147.992 51.9529 151.859 54.1858Z" stroke="white" stroke-opacity="0.15"/>
<path fill-rule="evenodd" clip-rule="evenodd" d="M172.639 82.0368L145.664 66.6001L118.762 81.9944L118.454 91.3224L98.8815 102.523L90.8855 97.9469L63.8102 113.441V144.154L71.8061 149.198V171.559L63.8102 176.134V207.187L90.5794 222.506L99.0341 218.193L118.688 229.44V238.591L145.664 254.028L172.639 238.591V229.44L192.646 217.991L200.642 222.567L227.518 207.187V176.218L219.522 171.289V148.84L227.518 144.265V113.441L200.503 97.9818L192.248 102.409L172.639 91.1881V82.0368ZM168.746 93.4485L192.187 106.863L200.442 102.435L223.624 115.701V142.004L215.628 146.58V173.465L223.624 178.395V204.927L200.642 218.078L192.646 213.503L168.746 227.179V236.331L145.664 249.539L122.582 236.331V227.179L99.1404 213.765L90.6856 218.078L67.7033 204.927V178.395L75.6992 173.819V147.048L67.7033 142.004V115.701L90.8855 102.435L98.8815 107.011L122.273 93.6252L122.582 84.2972L145.664 71.0884L168.746 84.2972V93.4485Z" fill="white"/>
<path fill-rule="evenodd" clip-rule="evenodd" d="M145.663 93.4307L87.9186 126.872V193.755L145.663 227.196L203.408 193.755V126.872L145.663 93.4307ZM91.8055 129.123L145.663 97.9326L199.521 129.123V191.504L145.663 222.694L91.8055 191.504V129.123Z" fill="white"/>
<path fill-rule="evenodd" clip-rule="evenodd" d="M126.911 134.649L114.95 141.523L94.9176 189.48L108.399 197.227L119.439 190.883L119.477 190.791L126.638 194.906L130.862 210.135L145.665 218.642L158.301 211.381L138.675 141.409L126.911 134.649ZM115.971 188.776L112.009 191.053L113.516 187.365L115.971 188.776ZM107.518 192.622L99.4129 187.964L117.231 145.308L125.086 149.821L142.773 212.88L133.91 207.787L129.686 192.558L111.756 182.254L107.518 192.622ZM146.764 213.911L143.695 202.969L143.724 202.961L139.5 187.731L139.427 187.751L128.696 149.495L136.054 145.266L154.122 209.682L146.764 213.911ZM133.586 142.585L126.607 146.596L119.932 142.76L126.911 138.749L133.586 142.585ZM120.876 159.408L118.817 164.807C118.481 165.688 118.197 166.438 117.966 167.057L117.963 167.066L114.749 174.931L126.702 181.8L123.664 170.844L123.603 170.622L123.596 170.602C123.459 170.149 123.201 169.158 122.828 167.655L122.828 167.654L122.826 167.648L122.825 167.641C122.641 166.823 122.439 165.952 122.218 165.027L120.876 159.408ZM120.841 174.001L120.95 174.394L120.553 174.166L120.841 174.001Z" fill="white"/>
<path d="M116.694 174.217L123.693 178.201L121.769 171.328L121.712 171.124C121.555 170.612 121.281 169.561 120.901 168.049L120.894 168.022L120.888 167.996C120.702 167.176 120.497 166.3 120.273 165.369C119.93 166.259 119.642 167.015 119.407 167.637L119.394 167.672L116.694 174.217Z" fill="white"/>
</g>
</g>
<defs>
<filter id="filter0_d_609_2" x="0" y="2.01123" width="291.219" height="316.778" filterUnits="userSpaceOnUse" color-interpolation-filters="sRGB">
<feFlood flood-opacity="0" result="BackgroundImageFix"/>
<feColorMatrix in="SourceAlpha" type="matrix" values="0 0 0 0 0 0 0 0 0 0 0 0 0 0 0 0 0 0 127 0" result="hardAlpha"/>
<feOffset/>
<feGaussianBlur stdDeviation="25"/>
<feComposite in2="hardAlpha" operator="out"/>
<feColorMatrix type="matrix" values="0 0 0 0 1 0 0 0 0 1 0 0 0 0 1 0 0 0 0.1 0"/>
<feBlend mode="normal" in2="BackgroundImageFix" result="effect1_dropShadow_609_2"/>
<feBlend mode="normal" in="SourceGraphic" in2="effect1_dropShadow_609_2" result="shape"/>
</filter>
<clipPath id="clip0_609_2">
<rect width="291" height="321" fill="white"/>
</clipPath>
</defs>
</svg>
